<svg xmlns="http://www.w3.org/2000/svg" width="1.375em" height="1.125em"><g id="person" xmlns="http://www.w3.org/2000/svg">
            <svg x="50%" y="50%" width="1.375em" height="1.125em" overflow="visible" viewBox="0 0 22 18">
                <svg x="-11" y="-9"><svg width="22" height="18" viewBox="0 0 22 18" fill="none" xmlns="http://www.w3.org/2000/svg">
<path d="M7.28751 10.275C8.33751 11.0625 9.61251 11.5125 11 11.5125C12.3875 11.5125 13.6625 11.0625 14.7125 10.275C18.2375 10.5 21.0125 12.9 21.0125 16.5C21.0125 16.5 16.6625 17.7375 11 17.7375C5.33751 17.7375 0.987512 16.5 0.987512 16.5C0.987512 12.9 3.76251 10.5 7.28751 10.275ZM11 10.275C8.22501 10.275 5.97501 8.02498 5.97501 5.24998C5.97501 4.91248 6.01251 4.61248 6.05001 4.27498L6.01251 4.27498C6.50001 1.98748 8.52501 0.224977 10.9625 0.224976C12.8375 0.224976 14.5625 1.23748 15.35 2.81248C15.7625 3.52498 15.9875 4.38748 15.9875 5.24998C16.025 8.02498 13.775 10.275 11 10.275Z" fill="#11397E"/>
</svg>
</svg>
            </svg>
        </g></svg>