<svg xmlns="http://www.w3.org/2000/svg" width="1.25em" height="1.25em"><g id="plane-right" xmlns="http://www.w3.org/2000/svg">
            <svg x="50%" y="50%" width="1.25em" height="1.25em" overflow="visible" viewBox="0 0 20 20">
                <svg x="-10" y="-10"><svg width="20" height="20" viewBox="0 0 20 20" fill="none" xmlns="http://www.w3.org/2000/svg">
<path d="M6 6.11959e-07L8 5.24537e-07L13 8.5L18.5 8.5C19.33 8.5 20 9.17 20 10C20 10.83 19.33 11.5 18.5 11.5L13 11.5L8 20L6 20L8.5 11.5L3 11.5L1.5 14L-2.62268e-07 14L1 10L-6.11959e-07 6L1.5 6L3 8.5L8.5 8.5L6 6.11959e-07Z" fill="#11397E"/>
</svg>
</svg>
            </svg>
        </g></svg>